# xmcd
#
# Track frame offsets: 
#        150
#        24417
#        54255
#        80556
#        112860
#        134733
#        169116
#
# Disc length: 2818 seconds
#
# Revision: 0
# Processed by: cddbd v1.5.2PL0 Copyright (c) Steve Scherf et al.
# Submitted via: ExactAudioCopyFreeDBPlugin 1.0
#
DISCID=520b0007
DTITLE=Dżem - Symfonicznie
DYEAR=2012
DGENRE=Blues
TTITLE0=Słoneczny Dzionek W Pewli Wielkiej
TTITLE1=Jednak Czegoś Żal
TTITLE2=Partyzant
TTITLE3=Do Kołyski
TTITLE4=Jak Malowany Ptak
TTITLE5=Wehikuł Czasu - To Byłby Cud
TTITLE6=Modlitwa III - Pozwól Mi
EXTD=
EXTT0=
EXTT1=
EXTT2=
EXTT3=
EXTT4=
EXTT5=
EXTT6=
PLAYORDER=
